<svg width="16" height="13" viewBox="0 0 16 13" fill="none" xmlns="http://www.w3.org/2000/svg">
<path d="M0.480468 6.78967L5.62332 11.9219C5.78856 12.0862 5.9951 12.1683 6.20164 12.1683C6.40818 12.1683 6.61472 12.0862 6.77995 11.9219C7.11041 11.5935 7.11041 11.0802 6.77995 10.7518L3.04157 7.03602H15.1035C15.5579 7.03602 15.9297 6.66649 15.9297 6.21485C15.9297 5.76322 15.5579 5.39369 15.1035 5.39369H3.04157L6.8006 1.65741C7.13107 1.32894 7.13107 0.815719 6.8006 0.487254C6.47014 0.15879 5.95379 0.15879 5.62332 0.487254L0.480468 5.61951C0.150003 5.94798 0.150003 6.48173 0.480468 6.78967Z" fill="#58595B"/>
</svg>
