<svg width="47" height="56" viewBox="0 0 47 56" fill="none" xmlns="http://www.w3.org/2000/svg">
<path d="M30.4268 33.9775L27.7068 36.6975C27.5669 36.8373 27.3887 36.9325 27.1948 36.9711C27.0008 37.0097 26.7998 36.9899 26.6171 36.9142C26.4344 36.8385 26.2782 36.7104 26.1684 36.546C26.0585 36.3816 25.9998 36.1883 25.9998 35.9905V26.4045L24.7068 27.6975L23.2928 26.2835L25.9868 23.5905C25.8767 20.1683 25.2054 16.7873 23.9998 13.5825C22.74 16.9112 22.0634 20.432 21.9998 23.9905V28.5765L24.7068 31.2835L23.2928 32.6975L17.5728 26.9775L21.8018 34.3775L25.7068 38.2825L24.2928 39.6965L21.9998 37.4045V46.5765L24.7068 49.2835L23.2928 50.6975L21.9998 49.4045V55.9905H25.9998V44.4045L24.7068 45.6975L23.2928 44.2835L26.1998 41.3785L30.4268 33.9775Z" fill="white"/>
<path d="M44.4179 30.6165C44.4049 30.6095 44.3829 30.5945 44.3829 30.5945C43.6212 30.1816 42.7654 29.9737 41.8992 29.9911C41.033 30.0086 40.1862 30.2508 39.4419 30.694C38.6975 31.1372 38.081 31.7662 37.6529 32.5194C37.2248 33.2726 36.9998 34.1241 36.9999 34.9905H34.9999C35.0006 33.8482 35.281 32.7235 35.8163 31.7144C36.3517 30.7054 37.1259 29.8427 38.0713 29.2016C39.0168 28.5606 40.1047 28.1606 41.2402 28.0366C42.3758 27.9127 43.5244 28.0685 44.5859 28.4905C44.8546 28.0361 44.9975 27.5184 44.9999 26.9905C44.9984 26.3141 44.7623 25.6592 44.3319 25.1375C44.2369 25.0196 44.17 24.8817 44.1361 24.7341C44.1022 24.5866 44.1023 24.4333 44.1362 24.2858C44.1702 24.1382 44.2373 24.0004 44.3323 23.8825C44.4273 23.7647 44.5479 23.67 44.6849 23.6055C45.4488 23.2519 46.0813 22.6658 46.4921 21.931C46.9028 21.1963 47.0707 20.3504 46.9718 19.5145C46.8728 18.6785 46.5121 17.8953 45.9411 17.2767C45.3702 16.6581 44.6182 16.2359 43.7929 16.0705H43.7879C43.5284 16.0183 43.2645 15.9915 42.9999 15.9905C41.939 15.9905 40.9216 16.4119 40.1714 17.1621C39.4213 17.9122 38.9999 18.9296 38.9999 19.9905H36.9999C36.9997 18.4148 37.6193 16.9023 38.7249 15.7797C39.8305 14.6571 41.3334 14.0144 42.9089 13.9905C42.6492 12.5157 41.8475 11.1913 40.6613 10.2775C39.475 9.3637 37.9899 8.92649 36.4977 9.05179C35.0055 9.17709 33.6141 9.85584 32.5968 10.9547C31.5795 12.0536 31.0099 13.4931 30.9999 14.9905H28.9999C29.003 13.0638 29.7011 11.2028 30.9658 9.74926C32.2305 8.2957 33.9771 7.34707 35.8849 7.0775C35.6793 6.20074 35.1839 5.419 34.4789 4.85877C33.7738 4.29855 32.9004 3.99262 31.9999 3.9905C31.9169 3.9905 31.8289 4.0075 31.7439 4.0135C31.9115 4.6592 31.9975 5.32339 31.9999 5.9905H29.9999C30.0017 5.18689 29.8408 4.39123 29.5269 3.6515C29.0374 2.50075 28.2006 1.5317 27.1334 0.879791C26.0663 0.227884 24.8221 -0.0742961 23.5748 0.0154889C22.3275 0.105274 21.1394 0.582536 20.1766 1.38057C19.2138 2.1786 18.5245 3.25751 18.2049 4.4665C18.1982 4.48558 18.1905 4.50427 18.1819 4.5225C18.0618 5.00262 18.0006 5.49559 17.9999 5.9905H15.9999C16.0042 5.53698 16.0474 5.08466 16.1289 4.6385C15.4972 4.22031 14.7574 3.99514 13.9999 3.9905C13.0993 3.99262 12.2259 4.29855 11.5208 4.85877C10.8158 5.419 10.3204 6.20074 10.1149 7.0775C12.0226 7.34707 13.7692 8.2957 15.0339 9.74926C16.2986 11.2028 16.9967 13.0638 16.9999 14.9905H14.9999C14.9999 13.3992 14.3677 11.8731 13.2425 10.7479C12.1173 9.62264 10.5912 8.9905 8.99986 8.9905C7.40856 8.9905 5.88243 9.62264 4.75721 10.7479C3.632 11.8731 2.99986 13.3992 2.99986 14.9905C3.00038 15.3835 3.04024 15.7754 3.11886 16.1605C3.16575 16.3897 3.1308 16.6281 3.02007 16.8342C2.90935 17.0403 2.72986 17.2011 2.51285 17.2885C1.69372 17.6135 1.00558 18.2011 0.556283 18.9592C0.106985 19.7173 -0.0780703 20.6031 0.0301228 21.4776C0.138316 22.3522 0.533642 23.1662 1.15414 23.792C1.77463 24.4177 2.58522 24.8199 3.45885 24.9355C3.92738 23.8936 4.73922 23.044 5.75875 22.5287C6.77828 22.0133 7.94377 21.8634 9.06054 22.1039C10.1773 22.3445 11.1777 22.9609 11.8947 23.8503C12.6117 24.7397 13.0018 25.8481 12.9999 26.9905H10.9999C10.9989 26.2675 10.7368 25.5691 10.2618 25.024C9.78686 24.4788 9.13101 24.1235 8.41493 24.0235C7.69886 23.9235 6.97074 24.0854 6.36457 24.4795C5.7584 24.8736 5.31497 25.4734 5.11586 26.1685C5.11586 26.1975 5.05585 26.4835 5.03685 26.5945C5.03685 26.6145 5.02886 26.6325 5.02686 26.6525C5.00977 26.7644 5.00075 26.8773 4.99986 26.9905C5.00299 27.5233 5.14796 28.0456 5.41984 28.5038C5.69173 28.962 6.08073 29.3395 6.54685 29.5975C6.68674 29.6757 6.80579 29.7863 6.89396 29.9202C6.98214 30.054 7.03687 30.207 7.05353 30.3664C7.07019 30.5258 7.04831 30.6869 6.98972 30.836C6.93112 30.9852 6.83754 31.1181 6.71686 31.2235C5.95035 31.8925 5.40617 32.7794 5.15697 33.7658C4.90777 34.7522 4.96542 35.7912 5.32221 36.7439C5.679 37.6967 6.31795 38.518 7.15376 39.0981C7.98957 39.6782 8.98246 39.9895 9.99986 39.9905H19.9999V35.2565L12.1319 21.4905C12.0144 21.2803 11.9766 21.0348 12.0257 20.799C12.0747 20.5632 12.2071 20.3531 12.3987 20.2071C12.5902 20.0612 12.828 19.9893 13.0683 20.0046C13.3087 20.0199 13.5354 20.1214 13.7069 20.2905L19.9999 26.5765V23.9905C20.0842 19.3405 21.1419 14.7597 23.1049 10.5435C23.1973 10.3885 23.3283 10.2602 23.4852 10.1711C23.6421 10.082 23.8194 10.0351 23.9999 10.0351C24.1803 10.0351 24.3576 10.082 24.5145 10.1711C24.6714 10.2602 24.8025 10.3885 24.8949 10.5435C26.8578 14.7597 27.9155 19.3405 27.9999 23.9905V33.5765L34.2929 27.2835C34.4643 27.1144 34.691 27.0129 34.9314 26.9976C35.1717 26.9823 35.4095 27.0542 35.601 27.2001C35.7926 27.3461 35.925 27.5562 35.974 27.792C36.0231 28.0278 35.9854 28.2733 35.8679 28.4835L29.2999 39.9905H41.9999C43.1078 39.9895 44.184 39.6206 45.0595 38.9416C45.935 38.2627 46.5602 37.3122 46.837 36.2394C47.1137 35.1665 47.0263 34.0322 46.5884 33.0145C46.1505 31.9967 45.3871 31.1533 44.4179 30.6165ZM8.99986 14.9905H6.99986V12.9905H8.99986V14.9905ZM11.9999 33.9905H9.99986V31.9905H11.9999V33.9905ZM17.9999 18.9905H15.9999V16.9905H17.9999V18.9905ZM20.9999 9.9905H18.9999V7.9905H20.9999V9.9905ZM25.9999 5.9905H23.9999V3.9905H25.9999V5.9905ZM33.9999 22.9905H31.9999V20.9905H33.9999V22.9905ZM42.9999 35.9905H40.9999V33.9905H42.9999V35.9905Z" fill="white"/>
</svg>
