<svg width="18" height="18" viewBox="0 0 18 18" fill="none" xmlns="http://www.w3.org/2000/svg">
<path d="M3.64378 12.7312L4.31325 11.5779L2.59559 2.64707C2.48929 2.09366 2.07912 1.64798 1.53644 1.49521L0.428904 1.18394C0.109299 1.0867 -0.0708807 0.748508 0.0263592 0.428904C0.123599 0.109299 0.461793 -0.0708807 0.78116 0.0263592L2.74907 0.578815C3.19023 0.702986 3.52318 1.06525 3.60993 1.51523L3.72338 2.10629L16.861 3.66022C17.0476 3.68239 17.182 3.84922 17.1639 4.03607L16.4651 11.294C16.448 11.4711 16.299 11.6062 16.1217 11.6062H5.69511L4.71222 13.2996C4.65431 13.3992 4.68839 13.527 4.78801 13.5849C4.81995 13.603 4.85594 13.6132 4.89264 13.6132H15.7747C15.8667 13.6132 15.9541 13.6538 16.0128 13.7245L16.6 14.4283C16.8045 14.6731 16.7716 15.0368 16.5269 15.2411C16.2821 15.4451 15.9184 15.4122 15.7141 15.1674L15.5197 14.9343C15.4606 14.8633 15.3736 14.8223 15.2813 14.8223H4.84855C4.63 14.8154 4.41574 14.7577 4.22293 14.6543C3.53176 14.2834 3.27245 13.4226 3.64378 12.7312Z" fill="white"/>
<path d="M7.89366 16.5395C7.89366 17.3465 7.24016 18 6.43316 18C5.62664 18 4.97266 17.3465 4.97266 16.5395C4.97266 15.733 5.62664 15.079 6.43316 15.079C7.24016 15.079 7.89366 15.733 7.89366 16.5395ZM7.02518 16.5395C7.02518 16.2127 6.76039 15.9482 6.43316 15.9482C6.10641 15.9482 5.84162 16.2127 5.84162 16.5395C5.84162 16.8663 6.10641 17.1313 6.43316 17.1313C6.76039 17.1313 7.02518 16.8663 7.02518 16.5395Z" fill="white"/>
<path d="M15.1915 16.5395C15.1915 17.3465 14.5375 18 13.7308 18C12.9245 18 12.2705 17.3465 12.2705 16.5395C12.2705 15.733 12.9245 15.079 13.7308 15.079C14.5375 15.079 15.1915 15.733 15.1915 16.5395ZM14.3228 16.5395C14.3228 16.2127 14.0575 15.9482 13.7308 15.9482C13.404 15.9482 13.139 16.2127 13.139 16.5395C13.139 16.8663 13.404 17.1313 13.7308 17.1313C14.0575 17.1313 14.3228 16.8663 14.3228 16.5395Z" fill="white"/>
</svg>
