<svg width="40" height="40" viewBox="0 0 40 40" fill="none" xmlns="http://www.w3.org/2000/svg">
<circle cx="20" cy="20" r="20" fill="#008B45"/>
<path d="M14.6438 23.7312L15.3133 22.5779L13.5956 13.6471C13.4893 13.0937 13.0791 12.648 12.5364 12.4952L11.4289 12.1839C11.1093 12.0867 10.9291 11.7485 11.0264 11.4289C11.1236 11.1093 11.4618 10.9291 11.7812 11.0264L13.7491 11.5788C14.1902 11.703 14.5232 12.0653 14.6099 12.5152L14.7234 13.1063L27.861 14.6602C28.0476 14.6824 28.182 14.8492 28.1639 15.0361L27.4651 22.294C27.448 22.4711 27.299 22.6062 27.1217 22.6062H16.6951L15.7122 24.2996C15.6543 24.3992 15.6884 24.527 15.788 24.5849C15.8199 24.603 15.8559 24.6132 15.8926 24.6132H26.7747C26.8667 24.6132 26.9541 24.6538 27.0128 24.7245L27.6 25.4283C27.8045 25.6731 27.7716 26.0368 27.5269 26.2411C27.2821 26.4451 26.9184 26.4122 26.7141 26.1674L26.5197 25.9343C26.4606 25.8633 26.3736 25.8223 26.2813 25.8223H15.8485C15.63 25.8154 15.4157 25.7577 15.2229 25.6543C14.5318 25.2834 14.2725 24.4226 14.6438 23.7312Z" fill="white"/>
<path d="M18.8937 27.5395C18.8937 28.3465 18.2402 29 17.4332 29C16.6266 29 15.9727 28.3465 15.9727 27.5395C15.9727 26.733 16.6266 26.079 17.4332 26.079C18.2402 26.079 18.8937 26.733 18.8937 27.5395ZM18.0252 27.5395C18.0252 27.2127 17.7604 26.9482 17.4332 26.9482C17.1064 26.9482 16.8416 27.2127 16.8416 27.5395C16.8416 27.8663 17.1064 28.1313 17.4332 28.1313C17.7604 28.1313 18.0252 27.8663 18.0252 27.5395Z" fill="white"/>
<path d="M26.1915 27.5395C26.1915 28.3465 25.5375 29 24.7308 29C23.9245 29 23.2705 28.3465 23.2705 27.5395C23.2705 26.733 23.9245 26.079 24.7308 26.079C25.5375 26.079 26.1915 26.733 26.1915 27.5395ZM25.3228 27.5395C25.3228 27.2127 25.0575 26.9482 24.7308 26.9482C24.404 26.9482 24.139 27.2127 24.139 27.5395C24.139 27.8663 24.404 28.1313 24.7308 28.1313C25.0575 28.1313 25.3228 27.8663 25.3228 27.5395Z" fill="white"/>
</svg>
