<svg width="33" height="15" viewBox="0 0 33 15" fill="none" xmlns="http://www.w3.org/2000/svg">
<path fill-rule="evenodd" clip-rule="evenodd" d="M5.05565 2.84405C4.40899 3.42473 3.54236 4.2 1.90002 4.2C1.34774 4.2 0.900024 3.75229 0.900024 3.2C0.900024 2.64772 1.34774 2.2 1.90002 2.2C2.75769 2.2 3.14106 1.87527 3.7194 1.35595C3.73225 1.34441 3.74519 1.33278 3.75823 1.32105C4.38191 0.760394 5.22776 0 6.80003 0C8.44236 0 9.30899 0.775273 9.95565 1.35595C10.5532 1.89252 10.9052 2.2 11.7 2.2C12.5577 2.2 12.9411 1.87527 13.5194 1.35595C13.5322 1.34441 13.5452 1.33278 13.5582 1.32106C14.1819 0.760394 15.0278 0 16.6 0C18.2424 0 19.109 0.775273 19.7556 1.35595C20.3532 1.89252 20.7052 2.2 21.5 2.2C22.3577 2.2 22.7411 1.87527 23.3194 1.35595C23.3322 1.34441 23.3452 1.33278 23.3582 1.32106C23.9819 0.760395 24.8278 0 26.4 0C27.978 0 28.8465 0.764639 29.4868 1.32831L29.5107 1.34929C30.1181 1.88381 30.4976 2.2 31.3 2.2C31.8523 2.2 32.3 2.64772 32.3 3.2C32.3 3.75229 31.8523 4.2 31.3 4.2C29.7221 4.2 28.8535 3.43536 28.2132 2.87169L28.1894 2.85071C27.582 2.31619 27.2024 2 26.4 2C25.6052 2 25.2532 2.30748 24.6556 2.84405C24.009 3.42473 23.1424 4.2 21.5 4.2C19.9278 4.2 19.0819 3.4396 18.4582 2.87894C18.4452 2.86722 18.4322 2.85559 18.4194 2.84405C17.8411 2.32473 17.4577 2 16.6 2C15.8052 2 15.4532 2.30748 14.8557 2.84405C14.209 3.42473 13.3424 4.2 11.7 4.2C10.1278 4.2 9.28191 3.43961 8.65823 2.87895C8.64519 2.86722 8.63225 2.85559 8.6194 2.84405C8.04107 2.32473 7.65769 2 6.80003 2C6.00516 2 5.6532 2.30748 5.05565 2.84405Z" fill="#58595B"/>
<path fill-rule="evenodd" clip-rule="evenodd" d="M5.05553 12.844C4.40886 13.4247 3.54224 14.2 1.8999 14.2C1.34762 14.2 0.899902 13.7523 0.899902 13.2C0.899902 12.6477 1.34762 12.2 1.8999 12.2C2.75757 12.2 3.14094 11.8753 3.71928 11.356C3.73213 11.3444 3.74507 11.3328 3.75811 11.3211C4.38178 10.7604 5.22764 10 6.7999 10C8.44224 10 9.30886 10.7753 9.95553 11.356C10.5531 11.8925 10.905 12.2 11.6999 12.2C12.5576 12.2 12.9409 11.8753 13.5193 11.356C13.5321 11.3444 13.5451 11.3328 13.5581 11.3211C14.1818 10.7604 15.0276 10 16.5999 10C18.2422 10 19.1089 10.7753 19.7555 11.356C20.3531 11.8925 20.705 12.2 21.4999 12.2C22.3576 12.2 22.7409 11.8753 23.3193 11.356C23.3321 11.3444 23.3451 11.3328 23.3581 11.3211C23.9818 10.7604 24.8276 10 26.3999 10C27.9778 10 28.8464 10.7646 29.4867 11.3283L29.5105 11.3493C30.1179 11.8838 30.4975 12.2 31.2999 12.2C31.8522 12.2 32.2999 12.6477 32.2999 13.2C32.2999 13.7523 31.8522 14.2 31.2999 14.2C29.722 14.2 28.8534 13.4354 28.2131 12.8717L28.1893 12.8507C27.5819 12.3162 27.2023 12 26.3999 12C25.605 12 25.2531 12.3075 24.6555 12.844C24.0089 13.4247 23.1422 14.2 21.4999 14.2C19.9276 14.2 19.0818 13.4396 18.4581 12.8789C18.4451 12.8672 18.4321 12.8556 18.4193 12.844C17.8409 12.3247 17.4576 12 16.5999 12C15.805 12 15.4531 12.3075 14.8555 12.844C14.2089 13.4247 13.3422 14.2 11.6999 14.2C10.1276 14.2 9.28179 13.4396 8.65811 12.8789C8.64507 12.8672 8.63213 12.8556 8.61928 12.844C8.04094 12.3247 7.65757 12 6.7999 12C6.00504 12 5.65308 12.3075 5.05553 12.844Z" fill="#58595B"/>
</svg>
