<svg width="77" height="89" viewBox="0 0 77 89" fill="none" xmlns="http://www.w3.org/2000/svg">
<path d="M42.8318 0C28.6748 0 15.9605 8.92705 11.0912 22.2725L0.0901722 55.2756C-0.0901723 55.8166 1.19209e-07 56.4478 0.360689 56.8987C0.721378 57.3495 1.26241 57.6201 1.80344 57.6201H7.93516C7.93516 59.0628 7.93516 61.1368 8.38602 63.3911H18.5755C18.5755 63.3911 17.4032 68.1702 11.1814 70.9656C11.6322 71.6869 12.1733 72.4083 12.7143 73.0395C15.69 76.3759 19.8379 78.2695 25.0679 78.6302V87.1064C25.0679 88.0983 25.8794 88.9098 26.8713 88.9098H43V52.0294C33.6221 49.9554 23.4448 41.4792 23.4448 31.2898C23.4448 19.4772 33.003 9.91895 44.8156 9.91895C56.6282 9.91895 66.1864 19.4772 66.1864 31.2898C66.1864 41.5694 55.1484 50.0456 45.5 52.1196V89H61.768C62.7599 89 63.5714 88.1885 63.5714 87.1966V60.4154C71.8673 53.923 76.6464 44.2746 76.6464 33.8146C76.5562 15.1489 61.4975 0 42.8318 0Z" fill="#58595B"/>
<path d="M54.0131 18.1246C26.9615 21.3708 34.8065 38.3232 37.5116 43.0122C39.2249 40.1267 41.9301 35.618 44.6352 31.7406L43.8237 27.6829L45.3566 30.8389C46.8895 28.765 48.2421 27.0517 49.5947 25.9696C49.5947 25.9696 45.537 32.8227 42.5613 38.9544L47.3404 38.6839L41.8399 40.4873C41.2087 41.8399 40.6677 43.1023 40.1266 44.2746C66.2766 42.1104 54.0131 18.1246 54.0131 18.1246Z" fill="#008B45"/>
</svg>
