<svg width="63" height="88" viewBox="0 0 63 88" fill="none" xmlns="http://www.w3.org/2000/svg">
<path d="M30.15 54.3775C21.25 55.8611 9.77963 50.4333 5 44.5L2 52.5L2.95556 66.7389L13 79.5L24.2167 85.0333H36.5778L47.95 80.0889L57 71.5L61 56.5L58.8278 45.4775C46.4667 43.0053 42.3721 52.3401 30.15 54.3775Z" fill="#008B45"/>
<path fill-rule="evenodd" clip-rule="evenodd" d="M22.5113 12.1999C25.2821 8.65986 27.8201 5.37629 29.8425 2.38086L31.25 0.5L32.6576 2.38086C34.68 5.37629 37.218 8.65986 39.9888 12.1999C40.3099 12.61 40.6339 13.0235 40.9604 13.44C43.4368 16.5997 46.053 19.9377 48.5585 23.3714C54.2034 31.1075 59.4726 39.5707 61.4479 48.046C63.6925 57.6769 62.1555 67.1616 56.9348 74.4703C51.733 81.7527 43.0343 86.6512 31.3693 87.4794L31.3683 87.4956C31.3288 87.493 31.2894 87.4904 31.25 87.4877C31.2107 87.4904 31.1713 87.493 31.1318 87.4956L31.1308 87.4794C19.4658 86.6512 10.7671 81.7527 5.56528 74.4703C0.344619 67.1616 -1.19239 57.6769 1.05222 48.046C3.02751 39.5707 8.29674 31.1075 13.9416 23.3714C16.4471 19.9377 19.0633 16.5997 21.5397 13.44C21.8662 13.0235 22.1902 12.61 22.5113 12.1999ZM31.25 83.4775C41.8157 82.6879 49.2907 78.29 53.6799 72.1453C58.1381 65.904 59.5751 57.6333 57.5523 48.9539C55.7718 41.3144 50.926 33.4021 45.3273 25.7292C42.8652 22.355 40.2937 19.0738 37.8131 15.9087C37.4866 15.4922 37.1618 15.0778 36.839 14.6654C34.8591 12.1358 32.9505 9.67748 31.25 7.33527C29.5496 9.67748 27.641 12.1358 25.6611 14.6654C25.3382 15.0778 25.0133 15.4924 24.6869 15.9089C22.2063 19.074 19.6348 22.3551 17.1728 25.7292C11.5741 33.4021 6.72831 41.3144 4.94781 48.9539C2.92496 57.6333 4.36197 65.904 8.82019 72.1453C13.2094 78.29 20.6844 82.6879 31.25 83.4775Z" fill="#58595B"/>
</svg>
