<svg width="75" height="89" viewBox="0 0 75 89" fill="none" xmlns="http://www.w3.org/2000/svg">
<path fill-rule="evenodd" clip-rule="evenodd" d="M37.3151 0.500351C37.3774 0.500116 37.4391 0.5 37.5001 0.5V0.501383C41.1563 0.528282 47.0429 0.951714 53.4195 2.13349C59.9978 3.35263 67.2455 5.40528 73.1224 8.76351L74.0504 9.2938L74.1252 10.36C74.7978 19.9453 75.0439 43.7781 70.5753 62.4651L70.5036 62.7648L70.3451 63.029C66.67 69.1541 55.1306 82.608 37.7626 88.3974L37.3151 87.0549L36.8676 88.3974C19.4996 82.608 7.96012 69.1541 4.28507 63.029L4.12656 62.7648L4.0549 62.4651C-0.413741 43.7781 -0.167687 19.9453 0.504965 10.36L0.579786 9.2938L1.50778 8.76351C7.38468 5.40528 14.6323 3.35263 21.2106 2.13349C27.5873 0.951714 33.4739 0.528282 37.1301 0.501383V0.5C37.1911 0.5 37.2527 0.500116 37.3151 0.500351ZM37.3151 4.50038C33.911 4.51427 28.1787 4.91022 21.9395 6.06651C15.9344 7.17943 9.59116 8.97317 4.42498 11.7223C3.82793 21.6901 3.7721 43.8221 7.87294 61.2303C11.3135 66.8017 21.7815 78.8524 37.3151 84.3225C52.8486 78.8524 63.3166 66.8017 66.7572 61.2303C70.858 43.8221 70.8022 21.6901 70.2052 11.7223C65.039 8.97317 58.6958 7.17943 52.6906 6.06651C46.4515 4.91022 40.7192 4.51427 37.3151 4.50038Z" fill="#58595B"/>
<path d="M24.5267 45.1243L22.4499 57.23C22.2658 58.3022 22.7067 59.3856 23.5864 60.0253C24.4667 60.665 25.6339 60.7501 26.5959 60.2423L37.4681 54.5267L48.3404 60.2423C48.7583 60.4627 49.2152 60.5708 49.6701 60.5708C50.2624 60.5708 50.8518 60.3867 51.3499 60.0253C52.2296 59.3856 52.6705 58.3022 52.4863 57.23L50.4096 45.1243L59.2057 36.5499C59.985 35.7909 60.2647 34.6552 59.9292 33.6207C59.5929 32.5861 58.6986 31.8327 57.6222 31.6764L45.467 29.9101L40.0305 18.8948C39.5491 17.9195 38.5557 17.3021 37.4681 17.3021C36.3806 17.3021 35.3872 17.9195 34.9058 18.8948L29.4693 29.9101L17.3141 31.6764C16.2377 31.8327 15.3434 32.5861 15.0071 33.6207C14.6716 34.6552 14.9513 35.7909 15.7305 36.5499L24.5267 45.1243Z" fill="#008B45"/>
</svg>
