<svg width="13" height="16" viewBox="0 0 13 16" fill="none" xmlns="http://www.w3.org/2000/svg">
<path fill-rule="evenodd" clip-rule="evenodd" d="M9.70986 14.3781C9.69416 14.5251 9.65395 14.6156 9.62004 14.6671H2.62883C2.59554 14.6162 2.55534 14.5264 2.53901 14.3781C2.49943 14.0025 2.15458 6.13378 2.02644 3.16519H10.1734C10.0811 5.57222 9.75194 13.9868 9.70986 14.3781ZM4.38942 1.46985C4.38942 1.26759 4.59357 1.10239 4.84482 1.10239H7.40261C7.65513 1.10239 7.85927 1.26759 7.85927 1.46985V1.83857H4.38942V1.46985ZM9.21545 1.83354V1.58229C9.21545 0.709799 8.50942 0 7.64133 0H4.60804C3.73995 0 3.03392 0.709799 3.03392 1.58229V1.83354H0V3.1652H0.698493L1.22111 14.7965C1.23116 14.8455 1.47864 16 2.48367 16H9.76445C10.7977 16 11.032 14.772 11.0352 14.7387C11.2946 11.8543 11.5264 3.1652 11.5264 3.1652H12.2487V1.83354H9.21545ZM8.94938 3.98869H7.74774L7.42488 13.9033H8.62714L8.94938 3.98869ZM5.52344 13.9029H6.72507V3.98836H5.52344V13.9029ZM3.62029 13.9034H4.82318L4.50408 4.07863L4.50094 3.98881H3.29868L3.61715 13.8129L3.62029 13.9034Z" fill="#AAAAAA"/>
</svg>
