<svg width="89" height="89" viewBox="0 0 89 89" fill="none" xmlns="http://www.w3.org/2000/svg">
<path d="M14.4625 44.1292C13.7208 43.3875 13.7208 42.275 14.4625 41.5333C15.2042 40.7917 16.3167 40.7917 17.0583 41.5333L23.1771 47.6521V39.1229L14.2771 30.2229C13.5354 29.4812 13.5354 28.3687 14.2771 27.6271C15.0187 26.8854 16.1312 26.8854 16.8729 27.6271L22.9917 33.7458V21.8792C22.9917 20.9521 23.7333 20.025 24.8458 20.025C25.9583 20.025 26.7 20.9521 26.7 21.8792V33.7458L32.8187 27.6271C33.5604 26.8854 34.6729 26.8854 35.4146 27.6271C36.1562 28.3687 36.1562 29.4812 35.4146 30.2229L26.5146 38.9375V47.4667L32.6333 41.3479C33.375 40.6062 34.4875 40.6062 35.2292 41.3479C35.9708 42.0896 35.9708 43.2021 35.2292 43.9438L26.3292 52.8438V63.0417C41.1625 62.4854 48.3937 55.0688 48.3937 40.6063C48.95 24.2896 38.9375 0 25.0312 0C11.125 0 1.11249 24.2896 1.11249 40.6063C1.11249 55.0688 8.34374 62.4854 23.1771 63.0417V53.0292L14.4625 44.1292Z" fill="#008B45"/>
<path d="M62.3 56.923C61.5583 56.1813 61.5583 55.0688 62.3 54.3272C63.0417 53.5855 64.1542 53.5855 64.8958 54.3272L68.4187 57.8501V53.2147L62.3 47.0959C61.5583 46.3543 61.5583 45.2418 62.3 44.5001C63.0417 43.7584 64.1542 43.7584 64.8958 44.5001L68.4187 48.023V40.7918C68.4187 39.6793 69.3458 38.9376 70.2729 38.9376C71.3854 38.9376 72.1271 39.6793 72.1271 40.7918V47.8376L75.65 44.3147C76.3917 43.573 77.5042 43.573 78.2458 44.3147C78.9875 45.0564 78.9875 46.1688 78.2458 46.9105L72.1271 53.0293V57.6647L75.65 54.1418C76.3917 53.4001 77.5042 53.4001 78.2458 54.1418C78.9875 54.8834 78.9875 55.9959 78.2458 56.7376L72.1271 63.0418V70.4584C82.5104 69.9022 87.8875 64.3397 87.8875 53.9563C87.8875 42.2751 80.8417 24.4751 70.2729 24.4751C59.7042 24.4751 52.6583 42.0897 52.6583 53.9563C52.6583 64.3397 57.85 69.9022 68.4187 70.4584V63.0418L62.3 56.923Z" fill="#58595B"/>
<path d="M87.1458 85.2916H72.1271V70.4583C71.5708 70.4583 70.8292 70.4583 70.2729 70.4583C69.7167 70.4583 68.975 70.4583 68.4188 70.4583V85.2916H26.8854V63.0416C26.3292 63.0416 25.5875 63.0416 25.0312 63.0416C24.475 63.0416 23.7333 63.0416 23.1771 63.0416V85.2916H1.85417C0.741667 85.2916 0 86.0333 0 87.1458C0 88.2583 0.741667 89 1.85417 89H87.1458C88.2583 89 89 88.2583 89 87.1458C89 86.0333 88.2583 85.2916 87.1458 85.2916Z" fill="#58595B"/>
<path d="M61.5583 18.5417C65.9616 18.5417 69.5312 14.9721 69.5312 10.5687C69.5312 6.16542 65.9616 2.59583 61.5583 2.59583C57.155 2.59583 53.5854 6.16542 53.5854 10.5687C53.5854 14.9721 57.155 18.5417 61.5583 18.5417Z" fill="#58595B"/>
</svg>
